<svg width="256" height="140" viewBox="0 0 256 140" fill="none" xmlns="http://www.w3.org/2000/svg">
<path d="M182.425 24.1572C183.378 24.2133 184.332 24.2133 185.286 24.1572C186.015 24.1011 186.127 24.3816 186.127 25.0548V44.0162C186.127 44.5211 186.127 44.7735 186.253 44.8998C186.38 45.026 186.632 45.026 187.137 45.026C188.107 45.026 189.078 45.0198 190.05 45.0135C192.001 45.0011 193.96 44.9885 195.945 45.026C196.73 45.026 196.954 44.8016 196.954 44.0162C196.926 40.8466 196.926 37.677 196.926 34.5074C196.926 31.3379 196.926 28.1683 196.898 24.9987C196.898 24.3255 197.066 24.1572 197.74 24.2133C198.783 24.2506 199.826 24.2383 200.885 24.2259H200.886C201.422 24.2196 201.962 24.2133 202.508 24.2133C203.069 24.2133 203.35 24.045 203.35 23.4279C203.293 21.4084 203.293 19.3888 203.35 17.3692C203.35 16.7522 203.181 16.5278 202.564 16.5839C201.482 16.6212 200.424 16.6088 199.358 16.5964C198.822 16.5901 198.284 16.5839 197.74 16.5839C197.123 16.5839 196.898 16.3595 196.954 15.7985C196.982 15.4899 196.982 15.1954 196.982 14.9009C196.982 14.6064 196.982 14.3119 197.01 14.0033C197.179 12.3204 198.301 11.1423 199.984 11.1423C200.825 11.1423 201.667 11.3106 202.508 11.535C203.069 11.7033 203.35 11.5911 203.574 11.0301C203.854 10.245 204.149 9.47396 204.443 8.70291L204.443 8.70198C204.738 7.93062 205.033 7.15926 205.313 6.37387C205.65 5.53239 205.93 4.69091 206.211 3.79333C206.125 3.75047 206.064 3.7158 206.011 3.68618C205.927 3.63827 205.866 3.6036 205.762 3.56893C202.508 2.27866 199.142 1.66157 195.664 2.27866C191.176 3.06404 188.203 5.53239 186.8 9.852C186.183 11.7033 186.071 13.6667 186.183 15.6302C186.239 16.4156 185.959 16.5839 185.23 16.5839C184.525 16.5468 183.796 16.5587 183.042 16.5711C182.656 16.5774 182.263 16.5839 181.864 16.5839V23.7645C181.808 23.8767 182.2 24.1572 182.425 24.1572Z" fill="#2F3676"/>
<path d="M165.202 23.5962C165.202 23.0352 165.034 22.8669 164.417 22.8669H147.924C147.139 22.8669 146.914 23.0913 146.914 23.8767C146.951 25.2207 146.939 26.5399 146.927 27.8673C146.92 28.5342 146.914 29.204 146.914 29.8793C146.914 30.1317 146.903 30.3421 146.894 30.5174C146.849 31.3939 146.849 31.394 148.485 31.394H154.207V34.9843C154.207 35.1526 153.926 35.377 153.702 35.4331L153.51 35.4813C152.684 35.6888 151.899 35.8859 151.065 35.938C148.653 36.0502 146.353 35.7136 144.277 34.255C142.202 32.7403 141.136 30.6647 140.743 28.1963C140.126 24.1011 140.687 20.3986 144.053 17.5375C146.073 15.7985 148.429 15.2375 151.009 15.7424C153.197 16.1912 155.161 16.9766 156.563 18.8839C159.592 16.528 162.621 14.2281 165.65 11.9282C164.248 10.077 162.397 8.84222 160.434 7.83244C157.18 6.20558 153.702 5.30799 150.056 5.0836C144.053 4.74701 138.724 6.31777 134.236 10.413C131.487 12.8813 129.692 16.0229 128.738 19.5571C127.504 24.1011 127.616 28.6451 129.187 33.0769C131.431 39.4161 135.975 43.343 142.426 45.0821C146.073 46.0357 149.719 46.1479 153.422 45.587C157.461 44.9699 161.219 43.7357 164.529 41.3234C164.922 41.043 165.09 40.7064 165.09 40.2576C165.202 34.6481 165.202 29.0947 165.202 23.5973V23.5962Z" fill="#2F3676"/>
<path fill-rule="evenodd" clip-rule="evenodd" d="M247.443 68.307V48.5602C247.443 48.5066 247.445 48.4529 247.446 48.4001C247.458 48.0113 247.468 47.6693 246.826 47.7187C243.685 47.9431 240.599 48.2797 237.57 49.1212C236.897 49.2895 236.672 49.6261 236.672 50.2993L236.841 61.7434C236.841 61.8716 236.829 61.9998 236.816 62.1387C236.801 62.3034 236.784 62.4843 236.784 62.6971C236.616 62.655 236.543 62.613 236.469 62.5709C236.444 62.5569 236.42 62.5428 236.392 62.5288C234.765 61.2385 232.914 60.6775 230.894 60.3971C226.238 59.78 221.133 62.4166 219.001 66.5679C217.543 69.3168 216.925 72.2339 216.869 75.3193C216.813 79.9195 217.991 84.1269 221.357 87.4928C224.611 90.8026 229.379 91.1953 232.858 89.5123C233.816 89.0701 234.677 88.4098 235.553 87.7385C236.01 87.388 236.472 87.0345 236.953 86.7074C236.897 87.605 236.841 88.6709 236.784 89.7367C236.728 90.2416 236.897 90.466 237.458 90.4099C237.971 90.3653 238.475 90.3384 238.978 90.3116C239.739 90.2711 240.495 90.2308 241.272 90.1294C242.469 89.9424 243.666 89.7056 244.863 89.4687C245.461 89.3503 246.06 89.2319 246.658 89.1197C247.331 89.0075 247.555 88.6148 247.555 87.8855C247.443 81.3219 247.443 74.8145 247.443 68.307ZM236.672 79.5268C236.672 79.8073 236.504 80.1438 236.336 80.3121C235.158 81.0975 233.811 81.5463 232.409 81.4341C230.389 81.3219 229.211 80.0877 228.594 78.2926C227.809 76.1608 227.865 74.0291 228.594 71.8973C229.323 69.7656 231.006 68.7558 233.306 68.9802C235.045 69.1485 236.392 70.607 236.616 72.7388C236.784 73.973 236.728 76.4413 236.728 76.4413C236.672 77.5069 236.672 78.5173 236.672 79.5268Z" fill="#2F3676"/>
<path d="M153.435 62.4031C153.197 62.1789 152.966 61.9612 152.748 61.7434C149.775 58.9946 144.614 59.1629 142.426 64.3801C140.799 68.4192 140.799 72.5144 142.763 76.4974C144.614 80.1999 148.99 81.2097 152.3 78.6853C152.624 78.4202 152.932 78.1397 153.258 77.8438C153.552 77.5759 153.861 77.2955 154.207 77.0023L157.236 79.3585C158.106 80.0316 158.961 80.7048 159.817 81.378C160.672 82.0512 161.528 82.7244 162.397 83.3976C162.846 83.7342 162.79 83.9586 162.454 84.3512C159.592 87.4928 156.114 89.4562 151.907 90.1294C148.036 90.7465 144.165 90.5221 140.463 89.1196C135.807 87.3806 132.665 84.0708 130.702 79.5828C128.177 73.6925 128.065 67.6338 130.253 61.6873C132.665 55.1799 137.321 51.1407 144.221 49.9066C149.831 48.9529 155.105 49.9066 159.817 53.2725C160.995 54.114 162.061 55.0677 162.902 56.3579C161.262 57.6516 159.621 58.9275 157.99 60.1956L157.989 60.1963C156.721 61.1826 155.459 62.1643 154.207 63.1459C153.947 62.8862 153.687 62.6408 153.435 62.4031Z" fill="#2F3676"/>
<path d="M227.135 43.6796C227.248 44.1284 227.135 44.2967 226.687 44.465C223.04 45.7553 219.282 46.3723 215.355 45.6431C211.596 44.7455 209.072 42.0527 209.128 37.3404C209.128 35.9932 209.122 34.6522 209.115 33.3132L209.115 33.3096C209.103 30.6356 209.09 27.9698 209.128 25.2792C209.128 24.5499 208.903 24.3255 208.174 24.3816C207.648 24.4191 207.098 24.4064 206.555 24.3939C206.288 24.3877 206.022 24.3816 205.762 24.3816C205.313 24.3816 205.089 24.2694 205.089 23.7645V17.3131C205.089 16.8083 205.313 16.6961 205.762 16.6961C206.082 16.6961 206.396 16.6897 206.707 16.6835C207.324 16.671 207.933 16.6588 208.567 16.6961C209.128 16.6961 209.408 16.4717 209.577 15.9107C209.885 14.8448 210.222 13.7789 210.558 12.713C210.895 11.6472 211.231 10.5813 211.54 9.51541C211.708 8.95442 211.933 8.73003 212.55 8.73003H219.843V15.9107C219.843 16.4717 220.011 16.64 220.572 16.64C221.441 16.6119 222.311 16.6119 223.18 16.6119C224.05 16.6119 224.92 16.6119 225.789 16.5839C226.462 16.5839 226.631 16.7522 226.631 17.4253C226.574 19.4449 226.574 21.4645 226.631 23.484C226.687 24.2133 226.406 24.3255 225.789 24.3255C224.948 24.2975 224.092 24.2975 223.237 24.2975C222.381 24.2975 221.526 24.2975 220.684 24.2694C220.067 24.2133 219.899 24.4377 219.899 24.9987C219.927 26.4853 219.927 27.9579 219.927 29.4305C219.927 30.9031 219.927 32.3757 219.955 33.8623C220.011 36.4429 220.46 37.1721 223.77 36.8916C224.286 36.8486 224.769 36.7396 225.32 36.6153C225.488 36.5774 225.662 36.5382 225.845 36.4989C226.069 37.7883 226.294 39.0216 226.518 40.2548L226.518 40.2576C226.631 40.8184 226.729 41.3932 226.827 41.968C226.925 42.543 227.023 43.1186 227.135 43.6796Z" fill="#2F3676"/>
<path d="M215.467 60.7897C213.728 60.2288 211.989 60.1727 210.362 61.1263C207.95 62.5288 206.603 64.7167 205.594 67.185C205.425 67.5777 205.313 67.9143 205.201 68.307C205.145 68.307 205.089 68.307 205.033 68.2509C205.145 65.6703 205.257 63.0898 205.313 60.397C205.175 60.397 205.044 60.3901 204.92 60.3836C204.691 60.3715 204.485 60.3606 204.303 60.397C202.686 60.6411 201.069 60.9018 199.462 61.1609C198.113 61.3783 196.77 61.5948 195.44 61.7995C194.766 61.9117 194.598 62.2483 194.598 62.9215V88.8392C194.598 89.0635 194.598 89.3441 194.654 89.6245H205.369V74.4218C205.369 74.1413 205.425 73.7486 205.65 73.5803C207.276 72.5144 208.903 71.5046 210.923 71.6168C211.656 71.6901 212.388 71.8351 213.168 71.9895L213.17 71.99L213.172 71.9903C213.585 72.072 214.011 72.1563 214.457 72.2339C215.86 68.7558 216.252 65.0533 215.86 61.2385C215.916 61.0702 215.691 60.8458 215.467 60.7897Z" fill="#2F3676"/>
<path d="M169.185 17.3131C172.495 16.3034 175.805 15.9107 179.283 15.9107V45.026H168.624V18.3229C168.624 17.818 168.624 17.4814 169.185 17.3131Z" fill="#2F3676"/>
<path d="M174.01 14.5082C177.376 14.4521 179.956 11.9838 179.9 8.73002C179.9 5.53239 177.264 3.00794 173.898 3.00794C170.363 3.06404 168.007 5.64459 167.951 8.73002C167.951 11.9277 170.7 14.5643 174.01 14.5082Z" fill="#2F3676"/>
<path fill-rule="evenodd" clip-rule="evenodd" d="M157.356 113.574C158.018 113.866 158.736 114.184 159.424 114.589C164.585 117.618 164.866 124.181 162.341 128.164C160.658 130.857 158.078 132.316 155.105 133.157C153.085 133.774 150.953 133.943 148.822 133.943C145.088 133.906 141.841 133.917 138.44 133.93H138.433C136.675 133.936 134.875 133.943 132.946 133.943C132.216 133.943 132.048 133.718 132.048 133.045V95.571C132.048 94.8978 132.272 94.6734 132.946 94.6734C135.525 94.6976 137.898 94.6906 140.241 94.6837C143.35 94.6746 146.409 94.6656 149.831 94.7295C152.861 94.7295 155.722 95.4588 158.302 97.1418C162.958 100.171 164.249 106.847 159.873 111.054C159.166 111.72 158.305 112.231 157.472 112.725C157.182 112.898 156.895 113.068 156.619 113.242C156.853 113.351 157.101 113.461 157.356 113.574ZM144.233 103.499C144.019 103.493 143.792 103.488 143.548 103.481C143.548 105.725 143.548 107.744 143.604 109.932C144.096 109.932 144.504 109.937 144.872 109.94C145.848 109.95 146.549 109.958 147.812 109.876C148.429 109.876 149.158 109.596 149.719 109.203C150.841 108.474 151.178 107.352 150.897 106.061C150.617 104.771 149.719 103.93 148.541 103.761C146.758 103.563 145.85 103.54 144.233 103.499ZM147.756 124.967C148.317 124.967 148.878 124.911 149.439 124.799C151.458 124.462 152.692 122.274 151.963 120.311C151.29 118.796 150 118.123 148.429 118.067C147.04 117.985 146.246 117.992 145.18 118.003C144.782 118.006 144.347 118.011 143.829 118.011C143.794 118.011 143.759 118.032 143.711 118.062C143.682 118.08 143.647 118.101 143.604 118.123V124.967H147.756Z" fill="#2F3676"/>
<path d="M247.051 119.133C246.714 118.628 246.546 118.235 246.938 117.618C248.584 115.187 250.18 112.756 251.775 110.325C252.573 109.11 253.371 107.894 254.175 106.679C254.311 106.475 254.447 106.251 254.595 106.006C254.692 105.846 254.794 105.677 254.904 105.501C254.797 105.479 254.715 105.458 254.644 105.439C254.53 105.41 254.447 105.388 254.343 105.388C250.977 105.388 247.668 105.388 244.302 105.444C243.965 105.444 243.516 105.725 243.348 106.005C242.205 107.807 241.083 109.63 239.955 111.462C239.258 112.595 238.558 113.732 237.85 114.869C237.626 115.262 237.345 115.71 236.672 115.374V95.3466C233.194 95.4027 229.884 95.9076 226.631 96.8052C226.07 96.9735 225.957 97.254 225.957 97.815V133.774H236.672C236.672 133.598 236.688 133.438 236.702 133.284C236.716 133.144 236.728 133.011 236.728 132.877V123.228C236.728 123.08 236.858 122.889 236.966 122.73L236.993 122.691L237.009 122.667C237.072 122.709 237.142 122.743 237.215 122.778C237.337 122.837 237.464 122.898 237.57 123.003C237.705 123.139 237.804 123.346 237.896 123.539L237.897 123.541C237.919 123.588 237.941 123.633 237.963 123.677C239.758 126.818 241.497 129.904 243.236 133.101C243.516 133.606 243.853 133.83 244.414 133.83H255.746C255.521 133.438 255.409 133.213 255.297 132.989C252.548 128.389 249.799 123.789 247.051 119.133Z" fill="#2F3676"/>
<path d="M219.113 106.454C221.021 107.969 221.974 110.101 222.367 112.513C222.535 113.523 222.591 114.476 222.591 115.542V133.887H211.877V118.74C211.877 118.452 211.862 118.179 211.847 117.913C211.834 117.661 211.82 117.415 211.82 117.169C211.708 114.364 209.464 113.467 207.22 114.196C205.93 114.589 205.818 114.757 205.818 116.103V133.774H195.159V106.174C198.581 105.164 202.115 104.603 205.818 104.491V108.025C205.874 108.081 205.93 108.123 205.986 108.165C206.042 108.207 206.098 108.249 206.155 108.305C206.192 108.231 206.223 108.15 206.254 108.069C206.317 107.907 206.379 107.744 206.491 107.632C209.913 104.042 215.467 103.537 219.113 106.454Z" fill="#2F3676"/>
<path fill-rule="evenodd" clip-rule="evenodd" d="M192.635 127.996C190.952 128.164 190.447 127.716 190.391 126.089V115.486C190.391 109.876 187.698 106.398 182.256 105.164C176.815 103.93 171.71 104.996 166.998 107.913C166.445 108.268 165.921 108.651 165.385 109.042C165.159 109.207 164.931 109.373 164.697 109.54C165.582 110.554 166.454 111.545 167.32 112.528C168.322 113.664 169.315 114.792 170.307 115.935C170.588 115.767 170.812 115.598 171.037 115.43C172.944 114.252 174.851 113.242 177.208 113.467C178.834 113.635 179.788 114.701 179.62 116.271C179.62 116.496 179.339 116.776 179.115 116.832C177.937 117.113 176.703 117.393 175.468 117.618L175.135 117.689C172.895 118.167 170.714 118.633 168.737 119.862C165.876 121.601 164.249 124.967 164.922 128.164C166.268 134.56 173.168 136.411 177.937 133.494C178.569 133.099 179.117 132.593 179.68 132.073C179.917 131.855 180.156 131.634 180.405 131.418C181.078 132.652 181.976 133.662 183.322 134.167C186.52 135.401 189.605 134.896 192.579 133.326C192.747 133.213 192.859 132.933 192.859 132.708L192.691 128.669C192.691 128.472 192.672 128.333 192.656 128.217C192.644 128.136 192.635 128.066 192.635 127.996ZM179.62 126.481C179.62 126.706 179.395 126.93 179.227 127.042C178.049 127.716 176.422 127.323 175.805 126.201C175.132 125.023 175.525 123.62 176.871 122.947C177.341 122.712 177.872 122.537 178.439 122.35C178.819 122.225 179.215 122.095 179.62 121.937V126.481Z" fill="#2F3676"/>
<path fill-rule="evenodd" clip-rule="evenodd" d="M189.83 81.6024C189.83 83.3976 190.279 83.8464 192.13 83.7342C192.13 84.183 192.186 84.6317 192.298 85.0805C192.354 86.1464 192.41 87.2123 192.41 88.2782C192.41 88.5587 192.186 88.9514 191.962 89.0636C189.213 90.466 186.352 90.8587 183.378 90.0172C181.808 89.5684 180.742 88.3904 179.956 87.044C179.707 87.2598 179.468 87.4806 179.231 87.699C178.668 88.2185 178.12 88.7247 177.488 89.1196C173.898 91.3636 168.624 90.9148 165.819 86.9879C163.183 83.2854 164.305 78.0682 168.12 75.6559C170.168 74.327 172.545 73.8179 174.872 73.3194L174.964 73.2998C175.375 73.2063 175.786 73.119 176.198 73.0317C177.021 72.8572 177.843 72.6827 178.666 72.4583C178.834 72.4022 179.115 72.1217 179.115 71.8973C179.227 70.3265 178.273 69.2607 176.703 69.0924C175.132 68.9241 173.617 69.3168 172.215 70.046C171.733 70.3032 171.269 70.5787 170.792 70.8621C170.436 71.0733 170.074 71.289 169.69 71.5046C168.885 70.5988 168.08 69.6704 167.26 68.7244C166.251 67.5614 165.219 66.372 164.136 65.1654C164.922 64.5484 165.707 63.9874 166.493 63.4825C170.924 60.7897 175.693 59.78 180.854 60.6214C184.276 61.2385 187.081 62.7532 188.764 66.0069C189.605 67.6899 189.83 69.429 189.83 71.2802V81.6024ZM178.666 82.7805C178.834 82.6683 179.059 82.4439 179.059 82.2756C179.113 80.8675 179.063 79.4594 179.008 77.9503L179.003 77.7877C178.599 77.9301 178.216 78.0423 177.848 78.15C177.347 78.2968 176.875 78.435 176.422 78.6292C175.076 79.2463 174.515 80.6487 175.132 81.8829C175.749 83.061 177.376 83.5098 178.666 82.7805Z" fill="#2F3676"/>
<path d="M5.54508 45.1479L46.385 85.9879C51.3778 90.9807 59.5122 90.9807 64.5611 85.9879L82.9615 67.5875C87.9543 62.5947 87.9543 54.4604 82.9615 49.4115L42.0654 8.62761C37.0726 3.63481 28.9383 3.63481 23.8894 8.62761L5.54508 26.9719C0.552285 32.0208 0.552285 40.0991 5.54508 45.1479Z" fill="#2F3676"/>
<path d="M105.401 45.1479L64.561 85.9879C59.5683 90.9807 51.4339 90.9807 46.385 85.9879L27.9846 67.5875C22.9918 62.5947 22.9918 54.4603 27.9846 49.4115L68.8246 8.57151C73.8174 3.57871 81.9517 3.57871 87.0006 8.57151L105.401 26.9719C110.394 32.0208 110.394 40.099 105.401 45.1479Z" fill="#596AB2"/>
</svg>
